<svg xmlns="http://www.w3.org/2000/svg" width="32" height="32" viewBox="0 0 32 32">
  <defs>
    <linearGradient id="g" x1="0" y1="0" x2="1" y2="1">
      <stop offset="0" stop-color="#7b5bff"/>
      <stop offset="1" stop-color="#5a2fe0"/>
    </linearGradient>
  </defs>
  <rect width="32" height="32" rx="8" fill="url(#g)"/>
  <g transform="translate(4.5 4.5) scale(0.958)" fill="none" stroke="#fff" stroke-width="2" stroke-linecap="round" stroke-linejoin="round">
    <path d="M19.07 4.93A10 10 0 0 0 6.99 3.34"/>
    <path d="M4 6h.01"/>
    <path d="M2.29 9.62A10 10 0 1 0 21.31 8.35"/>
    <path d="M16.24 7.76A6 6 0 1 0 8.23 16.67"/>
    <path d="M12 18h.01"/>
    <path d="M17.99 11.66A6 6 0 0 1 15.77 16.67"/>
    <circle cx="12" cy="12" r="2"/>
    <path d="m13.41 10.59 5.66-5.66"/>
  </g>
</svg>
